<svg width="24" height="24" viewBox="0 0 24 24" fill="none" xmlns="http://www.w3.org/2000/svg">
<path d="M7 24C7 22.8954 7.89543 22 9 22H15C16.1046 22 17 22.8954 17 24V24H7V24Z" fill="#A5A5A7"/>
<path fill-rule="evenodd" clip-rule="evenodd" d="M7.68626 0.0012207H7.06676L6.79089 0.555905C5.45309 3.24573 4.69554 6.75463 5.27306 9.67301C5.56519 11.1492 6.21222 12.5315 7.36246 13.5449C8.31964 14.3881 9.55924 14.9175 11.0753 15.0767V23.9999H13.0753V15.077C14.5838 14.9191 15.8085 14.3948 16.7468 13.5515C17.8741 12.5384 18.4836 11.1586 18.7508 9.69371C19.2788 6.79944 18.5241 3.31063 17.3854 0.612391L17.1274 0.0012207H16.4641H12.0749H7.68626ZM7.23501 9.28475C6.80153 7.09423 7.29415 4.31708 8.32102 2.00122H12.0749H15.7876C16.6905 4.37922 17.1808 7.15549 16.7833 9.33481C16.5705 10.5016 16.1171 11.4284 15.4099 12.064C14.7131 12.6903 13.6658 13.1276 12.0751 13.1276C10.4875 13.1276 9.413 12.6859 8.68453 12.0442C7.94651 11.394 7.46599 10.4519 7.23501 9.28475Z" fill="#A5A5A7"/>
</svg>
